<?xml version="1.0" encoding="utf-8"?>
<!-- Generator: Adobe Illustrator 18.1.0, SVG Export Plug-In . SVG Version: 6.00 Build 0)  -->
<svg version="1.1" id="Layer_1" xmlns="http://www.w3.org/2000/svg" xmlns:xlink="http://www.w3.org/1999/xlink" x="0px" y="0px"
	 viewBox="0 0 1500 1500" enable-background="new 0 0 1500 1500" xml:space="preserve">
<g>
	<path fill="#3385E0" d="M505.9,644.4c0,0.1,0,0.3,0,0.4c0.1,2.4,1.5,5.1,3.4,6.7c7.9,6.1,9.1,7,135.6-97.6
		c12.5-10.3,25.8-21.3,38.8-32c-15.1,14.3-28.6,29.1-43.3,43C529,670,519,683.2,519,691.5c0,0.1,0,0.3,0,0.4c0,2.5-0.6,5.1,1.3,6.7
		c7.9,6.1,8.1,7.1,130.3-94.2c18.7-15.5,38.7-32.5,57.3-47.6c-22.1,22.5-51.1,48.4-74.8,72C520.4,741.1,504,756.4,504,765
		c0,0.2,0,0.3,0,0.5c0,2.4,4.3,5.1,6.2,6.6c7.9,6.1,10.4,7.1,138.1-98.4c20.9-17.3,44.6-36.2,65-52.8
		c-22.8,23.3-49.7,50.5-74.4,75.1C524.7,809.9,511.3,825.5,511.3,834.2c0,0.2,0.1,0.3,0.1,0.5c0.2,2.4,1.6,5.1,3.5,6.6
		c7.9,6.1,9.1,7.1,133.7-96.1c15-12.4,31.2-25.8,46.6-38.4c-18.3,17.8-38.1,36.8-56.4,54.4C527.4,868.2,514.4,882.6,514.4,891
		c0,0.2,0,0.3,0,0.4c0.1,2.4,1.5,5.1,3.4,6.6c7.9,6.1,9.1,7.1,131.5-94.3c17.3-14.4,36.2-30,53.7-44.2c-21.6,21.6-46.4,45.9-69,68.1
		c-114.5,112.3-128,127.5-128,136.1c0,0.2,0,0.3,0,0.5c0.1,2.4,1.5,5.1,3.4,6.6c7.8,6.1,9.1,7.1,135.6-97.6
		c19-15.6,39.6-32.7,58.5-48.1c-21.5,21.5-46.3,45.9-68.9,68c-114.1,111.9-127.5,127-127.5,135.6c0,0.2,0,0.3,0,0.5
		c0.1,2.4,1.5,5.1,3.4,6.6c8,6.2,9.1,7,139.6-100.6c18.4-15.2,38.3-31.6,56.9-46.7c-21.5,21-45.7,44.3-67.9,65.7
		c-118.1,113.7-131.8,128.9-131.8,137.6c0,0.2,0,0.3,0,0.4c0.1,2.4,1.5,5.1,3.4,6.7c8,6.2,9.1,7.1,139.9-100.9
		c18.7-15.4,39-32.1,57.8-47.5c-20.4,20.1-43.2,42.2-64.2,62.4c-114.1,110.3-127.4,125.1-127.4,133.6c0,0.2,0,0.3,0,0.4
		c0.1,2.4,1.5,5.1,3.4,6.6c7.9,6.1,9.1,7.1,132.8-95.3c12.3-10.2,25.4-21,38.2-31.6c-17.1,16.3-38.8,33.5-55.7,49.4
		c-115,108.6-131.8,123.1-131.8,131.5c0,0.1,0,0.3,0,0.4c0,2.4,5.1,5.1,7,6.7c7.8,6.1,10.8,7.1,134.6-95.4
		c20.5-17,43.9-35.5,63.9-51.8c-12,12.7-24.4,26.2-36.3,38.7c-80.4,84.2-86.9,92.9-86.9,99.4c0,0.3,0.1,0.6,0.2,0.9
		c0.2,2.4,1.5,4.9,3.4,6.3c7.5,5.8,8,6.2,99.2-69.2c14.3-11.8,29.9-24.7,44-36.1c-6.6,8.3-13.5,16.7-19.6,24.3
		c-49.3,60.7-54.5,68.3-54.5,73.7c0,0.4,0,0.9,0.1,1.3c0.3,2.2,1.5,4.5,3.3,5.9c6.8,5.3,6.8,5.3,64.5-42.2
		c11.9-9.8,26.4-21.7,37.1-30.2c-1.8,7.7-4,16.4-5.8,24c-7.2,28.8-10.1,40.6-10.1,46.4c0,3.9,1.3,5.1,3.5,6.7
		c5.2,4.2,8.1,1.9,18.5-6.4l7.4-5.9c2-1.6,3.6-4.2,3.6-6.8c0-2.6-0.8-5.2-2.8-6.8c-3.3-2.6-5.7-2.5-9.4-0.3
		c1.8-7.4,3.8-15.7,5.6-22.9c7.2-28.8,10.1-40.6,10.1-46.4c0-3.9-1.3-5-3.5-6.7c-6.8-5.4-6.8-5.4-64.7,42.4c-2,1.6-4,3.3-6.2,5.1
		c5.6-6.9,11.3-13.9,16.4-20.3c49.1-60.5,54.4-68.1,54.4-73.5c0-0.4-0.1-0.9-0.1-1.3c-0.3-2.2-1.5-4.5-3.3-5.9c-7.5-5.8-8-6.1-99,69
		c-7.6,6.3-15.6,12.9-23.6,19.4c10.3-10.8,20.9-22,30.9-32.4c80.5-84.2,87.1-92.9,87.1-99.4c0-0.3,0-0.6,0-0.9
		c-0.2-2.4-1.5-4.9-3.4-6.3c-7.8-6.1-9.1-7.1-132.7,95.3c-12.3,10.2-25.3,20.9-38.1,31.4c17.2-16.4,35.3-33.6,52.3-49.6
		C765.8,980,779,965.6,779,957.2c0-0.2,0-0.3,0-0.4c0-2.4-1.5-5.1-3.4-6.7c-7.9-6.1-9.1-7.1-132.9,95.4
		c-16,13.2-33.2,27.4-49.5,40.8c20.1-19.7,40.2-41.4,60.7-61.3C768.1,914.7,779,899.8,779,891.3c0-0.2,0-0.3,0-0.5
		c0-2.4,0.8-5.1-1.1-6.6c-8-6.3-7.9-7.1-138.8,100.9c-18.5,15.3-38,31.8-56.6,47c21.5-21,44.2-44.4,66.4-65.8
		C766.9,852.7,779,837.4,779,828.7c0-0.2,0-0.3,0-0.4c0-2.4,0.3-5.2-1.6-6.7c-8-6.2-8.2-7-138.7,100.6c-20.2,16.7-41.9,34.9-62,51.2
		c21.6-21.6,49.3-46.1,72-68.4C762.8,793.3,779,778.2,779,769.6c0-0.2,0-0.3,0-0.5c0-2.4-4.1-5.1-6-6.6
		c-7.9-6.1-10.3-7.1-137.3,97.8c-18.9,15.6-40.1,32.6-58.9,47.9c21.7-21.7,46.4-46.3,69.3-68.7c114.4-112.2,127.7-127.4,127.7-136
		c0-0.2-0.1-0.3-0.1-0.5c-0.1-2.4-1.6-5.1-3.5-6.6c-7.9-6.1-9.1-7.1-131.5,94.3c-14.3,11.8-29.5,24.4-44.2,36.5
		c18.1-17.6,39.8-36.5,58-54C764,666.2,779,651.8,779,643.4c0-0.1,0-0.3,0-0.4c0-2.4-3.5-5.1-5.4-6.6c-7.9-6.1-10.1-7.1-134.6,95.9
		c-19.9,16.5-42.2,34.5-61.8,50.4c22.7-23.2,49.7-50.3,74.2-74.8c114.3-114,127.7-129.5,127.7-138.2c0-0.2-0.1-0.4-0.1-0.5
		c-0.1-2.4-1.6-5.1-3.5-6.6c-7.9-6.1-9.1-7.1-136.6,98.3c-20.8,17.2-43.5,35.9-63.8,52.4c22.2-22.6,51.2-48.8,75-72.5
		C762.9,528.4,779,513.1,779,504.5c0-0.2,0-0.4,0-0.5c0-2.4-4.3-5.1-6.2-6.6c-7.9-6.1-10.4-7.1-132.6,94.1
		c-10.8,8.9-22.9,18.4-34.1,27.6c14.8-14,32.5-28.5,46.9-42c111.4-105,126-118.2,126-126.6c0-0.1,0-0.3,0-0.4c0-2.4-4.3-5.1-6.2-6.6
		c-7.9-6.1-10.5-7.1-137.1,97.6c-17,14-36,29.1-53.2,43.2c21.4-21,45.3-44.3,67.4-65.7c118.3-113.9,131.8-129.1,131.8-137.8
		c0-0.2-0.1-0.3-0.1-0.5c-0.1-2.4-1.6-5.2-3.5-6.6c-8-6.3-9.1-7.1-139.4,100.5c-25.4,20.9-53.8,44.3-77.2,63.1
		c20.1-21.8,44.9-48.1,67.2-71.7c97.8-103.5,109.9-118.2,109.9-126.3c0-0.2,0-0.4,0-0.6c-0.2-2.4-1.6-5-3.4-6.4
		c-7.8-6-8.6-6.6-116.5,82.6c-19,15.7-40.1,33.1-58.2,47.8c15.7-18.1,34.3-39.1,51.2-58.1c79.5-89.5,89.4-102.3,89.4-109.7
		c0-0.3,0-0.5,0-0.8c-0.2-2.3-1.6-4.8-3.4-6.2c-7.4-5.8-7.8-6.1-97.2,67.6c-11.5,9.5-23.9,19.7-35.5,29.2
		c9.5-11,19.4-22.4,28.3-32.5c63.7-73,69.8-81.4,69.8-87.4c0-0.4,0-0.8-0.1-1.2c-0.2-2.3-1.5-4.7-3.3-6.1
		c-7.1-5.6-7.3-5.7-79.1,53.5c-9,7.4-19.1,15.8-28.8,23.6c6.2-8.4,12.7-17,18.5-24.8c37.7-50.3,48.5-64.9,48.5-71.6
		c0-2.6-1.7-4-4.1-5.9c-6.7-5.2-7.6-4.5-54.8,34.7c-6.5,5.4-13.8,11.4-20.6,16.9c4-9,8.6-18.9,12.6-27.5
		c18.3-39.6,24.5-53,24.5-59.2c0-3-1.4-4.3-3.6-6c-6-4.6-6-4.6-35.7,19.7c-3.1,2.6-6.6,5.4-9.9,8.1c0.7-5.2,1.5-10.8,2.2-15.8
		c2.7-19.8,4.1-29.5,4.1-34.8c0-4.9-1.1-6-3.5-7.8c-5.8-3.7-10.2-0.1-12.3,1.6l1.8,1c-2,1.6-0.4,4.2-0.4,6.8c0,0.1,0,0.2,0,0.2
		c0,2.3-1.7,4.4,0,6c-0.8,6.8-3.6,16.7-4.8,24.8c-2.7,19.8-4.8,29.6-4.8,34.9c0,4.9,0.8,6,3.1,7.8c6,4.6,5.8,4.6,35.5-19.7
		c0.3-0.2,0.6-0.5,0.8-0.8c-3.9,8.6-8.2,17.9-12,26.2c-18.4,39.6-24.5,53-24.5,59.2c0,3,1.4,4.2,3.6,5.9c6.7,5.2,7.6,4.5,54.8-34.6
		c0.9-0.7,1.9-1.5,2.7-2.3c-5.6,7.5-11.3,15.2-16.5,22.1c-37.6,50.2-48.5,65-48.5,71.8c0,2.6,1.6,4,3.9,5.9
		c7.1,5.5,7.3,5.7,78.9-53.4c4.8-4,10-8.2,15.2-12.5c-8.7,10.1-17.7,20.4-25.8,29.7c-63.8,73.1-69.9,81.6-69.9,87.6
		c0,0.4,0,0.8,0.1,1.2c0.2,2.3,1.5,4.7,3.3,6.1c7.4,5.8,7.8,6.1,97.1-67.5c11.8-9.8,24.6-20.3,36.6-30.1
		c-15.1,17.4-32.7,37.2-48.6,55.2c-79.6,89.6-89.5,102.4-89.5,109.8c0,0.3,0,0.6,0.1,0.8c0.2,2.3,1.5,4.8,3.4,6.2
		c7.7,6,8.5,6.7,116.4-82.6c16.7-13.8,35-28.9,51.5-42.4c-19.6,21.2-43.1,46.2-64.4,68.7c-97.9,103.5-109.9,118.3-109.9,126.4
		c0,0.2,0,0.4,0,0.7c0.2,2.4,1.5,5,3.4,6.4c8,6.3,9.1,7.1,139.4-100.5c18.3-15.1,38.2-31.5,56.7-46.6
		c-21.5,21.1-45.9,44.6-68.2,66.1C519.6,620.5,505.9,635.7,505.9,644.4z"/>
	<path fill="#3385E0" d="M886,536.1V1300H474V131.1l-30,21.1L183,353.1V1223h122V383h-30c0,0,0,779,0,810c-15,0-46,0-61,0
		c0-31,0-807.8,0-823.5c15-8.5,183-137.2,229-169.8c0,58.8,0,947.3,0,1100.1l0,0v30.1h474v-30.1l0,0c0-137.5,0-733.1,0-747.4
		c15-8.1,122-97.4,168-127.6c0,61.6,0,737.1,0,768.1c-16,0-46,0-61,0c0-31,0-657,0-657h-31v687h122V356.3l-26,21.1L886,536.1z"/>
	<path fill="#3385E0" d="M1346.7,1192.9c1.2-4.9,2.5-10,3.6-14.6c5.6-22.5,8-32.3,8-37.2c0-3.6-1.3-4.7-3.4-6.4
		c-6-4.7-6.6-4.9-44.1,25.9c0.5-0.6,1.1-1.4,1.6-2c38.7-47.7,43.1-53.9,43.1-58.7c0-0.5-0.1-0.9-0.1-1.4c-0.3-2.2-1.5-4.5-3.3-5.9
		c-6.9-5.4-7.7-5.4-75.3,50.4c1.1-1.2,2.4-2.5,3.5-3.7c63.5-66.5,68.9-73.4,68.9-79.2c0-0.3,0-0.6-0.1-1c-0.2-2.4-1.5-4.8-3.3-6.3
		c-7.3-5.7-8.8-5.8-95.8,66c1-0.9,4.9-1.8,5.9-2.7c94.5-89.2,104.1-97.2,104.1-104.1c0-0.2,0-0.4,0-0.7c0-2.4-4.4-5.1-6.4-6.6
		c-7.5-5.8-9.7-6.4-108,74.9c-1.7,1.4-4.3,3-6.1,4.4c6.2-6,13.2-12,19.1-17.8c93.9-90.8,101.4-99.1,101.4-106c0-0.2,0-0.5,0-0.7
		c0-2.4-2.7-5.1-4.6-6.6c-7.7-5.9-8.9-6.4-112.6,79.2c-3.9,3.2-8.1,6.5-12.1,9.7c7.6-7.4,16.6-14.7,23.9-21.7
		c97-93.4,105.3-101.9,105.3-109c0-0.2,0-0.5,0-0.7c0-2.4-3-5.1-4.9-6.6c-7.6-5.9-9-6.4-112.6,79c-6.4,5.3-13.4,10.8-20.1,16.2
		c9.3-9.1,18.5-18.3,27.4-27.1c93.6-91.8,100.4-100.4,100.4-107.3c0-0.3,0-0.5-0.1-0.8c-0.1-2.4-1.5-5-3.4-6.5
		c-7.6-5.9-8.3-6.4-108.9,76.8c-5.2,4.3-10.7,8.8-16.1,13.3c9.2-9.1,18.5-18.2,27.3-26.8c94-92.2,100.9-100.8,100.9-107.8
		c0-0.3,0-0.5,0-0.8c-0.1-2.4-1.5-5-3.4-6.5c-7.5-5.8-8.4-6.3-104.4,73.2c3.5-3.4,4.1-6.8,7.5-10.1c91.8-88.1,95.4-96.2,95.4-103.1
		c0-0.2,0-0.4,0-0.7c0-2.4,1.5-5-0.5-6.6c-7.5-5.8-6.8-6.4-105.5,75.3c-7,5.8-13.6,11.8-20.8,17.8c11.4-11.4,23.5-23.1,34.5-34.2
		c91-90.7,101.1-102.1,101.1-109.8c0-0.2,0.1-0.4,0.1-0.6c-0.1-2.4-1.4-5-3.3-6.5c-7.6-6-8.2-6.5-109.5,77.2
		c-7.6,6.2-15.4,12.8-23.4,19.3c10.9-10.9,22.1-22.1,32.7-32.6c92.4-92,99.4-100.8,99.4-107.8c0-0.3,0-0.5,0-0.8
		c-0.2-2.4-1.5-5-3.4-6.5c-7-5.5-8.7-5.8-89.6,61c86.4-81.5,92.9-89.3,92.9-96c0-0.2,0-0.4,0-0.7c-0.1-2.4-1.4-5.1-3.4-6.6
		c-7.7-6-8.3-6.4-108.7,76.6c-2.4,2-4.9,4.1-7.4,6.1c7.4-7.1,16.7-14.2,23.8-21c97.2-93.6,106.1-102.1,106.1-109.2
		c0-0.2,0-0.5,0-0.7c0-2.4-3.4-5-5.4-6.6c-7.6-5.9-9.2-6.4-112.6,78.9c-13.1,10.8-27.8,22.5-41.2,33.5
		c11.6-12.4,23.6-25.4,35.1-37.5c80-84.6,86.6-93.5,86.6-100.1c0-0.3-0.1-0.6-0.1-0.9c-0.2-2.4-1.5-4.9-3.4-6.3
		c-7.4-5.8-7.9-6.1-93.7,64.8c-9.1,7.5-19.2,15.9-29.1,24c8.8-10,17.8-20.2,26-29.4c64.6-72.8,70.6-81,70.6-87c0-0.4,0-0.7-0.1-1.1
		c-0.2-2.3-1.5-4.7-3.3-6.1c-7.2-5.6-7.3-5.7-78.5,53c-3.7,3-7.5,6.2-11.5,9.5c2.8-3.3,5.6-6.5,8.3-9.5
		c50.3-57.6,55.2-64.3,55.2-69.7c0-0.4,0-0.8-0.1-1.2c-0.2-2.3-1.5-4.6-3.3-6.1c-6.8-5.3-6.8-5.3-64.3,42.1
		c-3.5,2.9-7.4,6.1-11.2,9.2c1.9-2.6,3.9-5.3,5.7-7.7c29.5-39.4,38.6-51.6,38.6-57.5c0-2.5-1.6-3.9-4-5.8c-6.4-5-6.4-5-45.3,27.2
		c-3.2,2.7-6.7,5.5-10.2,8.4c2.3-5,4.6-10,6.7-14.5c14.4-31.1,19.5-42.1,19.5-47.5c0-2.8-1.4-4.1-3.7-5.8
		c-5.8-4.5-6.7-3.8-30.3,15.6c0,0-2.7,2.1-4.1,3.2c0.4-3.2,0.9-7.6,0.9-7.6c2.1-15.2,3.2-23.1,3.2-27.6c0-4.5-1.1-5.7-3.4-7.5
		c-0.3-0.3-0.7-0.5-1.1-0.7c-5-2.8-7.3,0.6-9,2c-1.9,1.6-1.9,4.4-1.9,6.9c0,0,0,0.1,0,0.2c0,2-1.4,4-0.3,5.6
		c-0.9,7.1-3.2,18.8-3.2,18.8c-2.1,15.2-3.7,23.1-3.7,27.6c0,4.5,0.9,5.7,3.1,7.5c5.4,4.1,6.5,3.8,24.9-11.3
		c-2.1,4.6-4.3,9.3-6.3,13.5c-14.3,31-19.5,42.1-19.5,47.5c0,2.8,1.4,4.1,3.6,5.8c5.8,4.5,7.2,4.2,35.8-19.4c-1.3,1.8-2.7,3.7-4,5.4
		c-29.5,39.4-38.6,51.6-38.6,57.6c0,2.5,1.6,3.9,4,5.8c6.7,5.2,7.2,5,59.5-38c-2.1,2.4-4.1,4.7-6.1,7
		c-50.4,57.7-55.3,64.4-55.3,69.8c0,0.4,0,0.8,0.1,1.2c0.2,2.3,1.5,4.6,3.3,6.1c7.2,5.5,7.3,5.7,78.5-53.1c3.7-3.1,7.7-6.3,11.7-9.7
		c-8,9.1-16.2,18.4-23.7,26.8c-64.7,72.9-70.7,81.1-70.7,87.1c0,0.4,0,0.7,0.1,1.1c0.2,2.3,1.5,4.7,3.3,6.1
		c7.4,5.8,7.9,6.2,93.6-64.8c6.2-5.2,13-10.7,19.8-16.3c-10.7,11.4-21.9,23.2-32.4,34.3c-80.1,84.7-86.8,93.6-86.8,100.1
		c0,0.3,0,0.6,0.1,0.9c0.2,2.4,1.5,4.9,3.4,6.3c7.6,6,8.3,6.4,111.6-78.9c3.7-3,7.5-6.2,11.3-9.3c-7.7,7.4-18,14.8-25.3,21.9
		c-97.3,93.6-106.7,102.2-106.7,109.2c0,0.2,0,0.5,0,0.7c0,2.4,4,5,6,6.5c7.3,5.7,11.6,5.9,100.8-67.8c-88.1,83-91.7,90.7-91.7,97.5
		c0,0.2,0,0.4,0,0.7c0,2.4,0,5,1.9,6.6c7.5,5.9,7.6,6.5,104.6-73.9c5.9-4.9,11.6-9.9,17.8-15c-10.5,10.6-21.5,21.3-31.6,31.4
		c-89.9,89.5-99.7,100.7-99.7,108.3c0,0.2,0,0.4,0,0.6c0.1,2.4,1.5,5,3.4,6.5c7.6,5.9,8.2,6.4,109.4-77.2
		c7.9-6.5,16.1-13.3,24.3-20.1c-11.6,11.6-23.6,23.6-34.9,34.8c-90.9,90.6-100.8,102-100.8,109.6c0,0.2,0,0.4,0,0.5
		c0.2,2.4,1.5,5,3.4,6.5c7.5,5.9,8.3,6.5,107.3-75.5c0.3-0.3,0.7-0.6,1.1-0.9c-3.8,3.7-6.1,7.4-9.8,10.9
		c-91.5,87.9-96.5,96-96.5,102.8c0,0.2,0,0.5,0,0.7c0,2.4-0.1,5,1.8,6.5c7.5,5.8,7.5,6.4,104.7-74.1c3.9-3.2,7.5-6.6,11.6-9.9
		c-9,8.8-18.2,17.7-26.7,26.1c-94,92.2-101,100.8-101,107.8c0,0.3,0,0.5,0,0.8c0.1,2.4,1.5,5,3.3,6.5c7.7,6,8.3,6.4,108.8-76.6
		c5.3-4.4,10.7-8.9,16.2-13.4c-9,8.9-18.2,17.9-26.9,26.4c-93.7,91.9-100.6,100.5-100.6,107.4c0,0.2,0,0.5,0,0.7
		c0.1,2.5,1.5,5,3.4,6.5c7.6,5.9,8.2,6.4,111.7-78.9c3.7-3.1,7.5-6.2,11.4-9.4c-7.6,7.3-15.1,14.6-22.4,21.6
		c-97,93.4-104,101.9-104,109c0,0.2,0,0.5,0,0.7c0.1,2.5,1.5,5.1,3.4,6.6c7.7,5.9,8.3,6.4,112.1-79.3c4.2-3.4,8.5-7,12.8-10.5
		c-6.9,6.7-13.7,13.3-20.3,19.7c-93.7,90.6-100.5,99-100.5,105.9c0,0.2,0,0.5,0,0.7c0.1,2.4,1.5,5,3.4,6.5
		c7.2,5.6,8.9,5.8,95.6-65.9c-0.8,0.8,1.2,1.6,0.3,2.4c-94.6,89.3-98.3,97.4-98.3,104.3c0,0.2,0,0.4,0,0.6c0,2.5-1.4,5.1,0.5,6.6
		c7.6,5.9,6.8,6.4,105.1-74.9c8.8-7.3,17.4-14.9,26.5-22.5c-3.1,3.3-6.6,6.6-9.6,9.7c-63.5,66.4-69,73.3-69,79.1c0,0.3-0.1,0.7,0,1
		c0.2,2.4,1.4,4.8,3.3,6.3c7.1,5.5,7.3,5.7,80-54.3c6.6-5.4,13.8-11.4,21-17.3c-1.5,1.8-3.1,3.8-4.4,5.5
		c-38.9,47.8-43.2,54-43.2,58.8c0,0.4,0.1,0.9,0.1,1.4c0.3,2.2,1.5,4.4,3.3,5.9c6.5,5.1,6.5,5.1,53-33.2
		c7.9-6.5,17.1-14.1,24.9-20.4c-1.1,4.6-2.3,9.5-3.4,13.8c-5.6,22.5-8,32.1-8,37.1c0,3.6,1.3,4.7,3.5,6.4c5.4,4,8.5,1.5,16.7-5
		l5.8-4.6c2.1-1.6,3.6-4.4,3.5-7.1c-0.1-2.7-1.1-5.3-3.3-6.8C1350.2,1192.9,1348.5,1192.7,1346.7,1192.9z"/>
</g>
</svg>
